<?xml version="1.0" encoding="utf-8"?><svg xmlns="http://www.w3.org/2000/svg" xmlns:xlink="http://www.w3.org/1999/xlink"><symbol viewBox="0 0 6 12" id="fb" xmlns="http://www.w3.org/2000/svg"><defs><path id="aa" d="M117.774 981.002l-1.44-.002c-1.616 0-2.334 1.206-2.334 3v2h-2c-.126 0 0-.152 0 0v2c0 .135.875 0 1 0h1v5c0 .135-.226 0-.1 0h1.887c.125 0 .227-.11.227-.245L116 988h1c.125 0 1 .135 1 0v-2c0-.073.043.052 0 0-.043.417.06 0 0 0h-2l.014-1.84c0-.554.318-1.16.986-1.16h1c.125 0 0 .214 0 .079v-1.832c0-.135-.101-.244-.226-.245z"/></defs><use xlink:href="#aa" transform="translate(-112 -981)"/></symbol><symbol viewBox="0 0 12 12" id="insta" xmlns="http://www.w3.org/2000/svg"><defs><path id="ba" d="M160 985.75v4.5a3.75 3.75 0 0 1-3.75 3.75h-4.5a3.75 3.75 0 0 1-3.75-3.75v-4.5a3.75 3.75 0 0 1 3.75-3.75h4.5a3.75 3.75 0 0 1 3.75 3.75zm-1.125 0a2.628 2.628 0 0 0-2.625-2.625h-4.5a2.628 2.628 0 0 0-2.625 2.625v4.5a2.628 2.628 0 0 0 2.625 2.625h4.5a2.628 2.628 0 0 0 2.625-2.625zM157 988a3 3 0 1 1-6 0 3 3 0 0 1 6 0zm-1.125 0a1.877 1.877 0 0 0-1.875-1.875c-1.034 0-1.875.84-1.875 1.875 0 1.033.841 1.875 1.875 1.875a1.878 1.878 0 0 0 1.875-1.875zm1.35-3.625a.4.4 0 1 1 0 .8.4.4 0 0 1 0-.8z"/></defs><use xlink:href="#ba" transform="translate(-148 -982)"/></symbol><symbol viewBox="0 0 10 13" id="pin" xmlns="http://www.w3.org/2000/svg"><defs><path id="ca" d="M37.005 813.011c-1.28 0-2.323-.998-2.323-2.225 0-1.226 1.042-2.224 2.323-2.224 1.28 0 2.323.998 2.323 2.224 0 1.227-1.042 2.225-2.323 2.225zm0-4.057c-1.055 0-1.914.822-1.914 1.833 0 1.01.859 1.833 1.914 1.833s1.914-.822 1.914-1.833c0-1.011-.859-1.833-1.914-1.833zm0 10.048a.207.207 0 0 1-.157-.07c-.198-.226-4.844-5.567-4.844-8.145 0-2.641 2.244-4.79 5-4.79 2.758 0 5.002 2.149 5.002 4.79 0 2.578-4.646 7.919-4.844 8.145a.21.21 0 0 1-.157.07zm0-12.613c-2.532 0-4.592 1.973-4.592 4.398 0 2.182 3.77 6.742 4.592 7.71.822-.968 4.592-5.529 4.592-7.71 0-2.425-2.06-4.398-4.592-4.398z"/></defs><use xlink:href="#ca" transform="translate(-32 -806)"/></symbol><symbol viewBox="0 0 12 12" id="question" xmlns="http://www.w3.org/2000/svg"><defs><path id="da" d="M33.648 775.004a.179.179 0 0 1-.086-.023.186.186 0 0 1-.096-.163v-2.64C31.875 771.337 31 769.86 31 768.01c0-2.859 2.58-5.014 6-5.014s6 2.155 6 5.014c0 2.859-2.58 5.014-6 5.014a6.1 6.1 0 0 1-.333-.012h-.007l-2.912 1.962a.179.179 0 0 1-.1.03zM37 763.365c-3.213 0-5.636 1.997-5.636 4.644 0 1.231.41 2.906 2.364 3.89a.186.186 0 0 1 .101.166v2.409l2.68-1.806a.163.163 0 0 1 .11-.03l.067.003c.104.006.208.012.314.012 3.213 0 5.636-1.997 5.636-4.644 0-2.647-2.423-4.644-5.636-4.644z"/></defs><use xlink:href="#da" transform="translate(-31 -763)"/></symbol><symbol viewBox="0 0 24 28" id="rev_link" xmlns="http://www.w3.org/2000/svg"><defs><path id="ea" d="M1009.924 1386.09l-23.696 13.68v-27.362z"/><clipPath id="eb"><use xlink:href="#ea"/></clipPath></defs><use fill-opacity="0" stroke-miterlimit="50" stroke-width="2" clip-path="url(#eb)" xlink:href="#ea" opacity=".5" transform="translate(-986 -1372)"/></symbol><symbol viewBox="0 0 192.804 192.804" id="search" xmlns="http://www.w3.org/2000/svg"><path d="M10.607 192.803l62.401-62.402c13.063 10.67 29.263 16.475 46.356 16.475h.002c19.614 0 38.058-7.639 51.927-21.509 13.871-13.87 21.511-32.313 21.51-51.931-.001-19.616-7.64-38.058-21.509-51.928C157.425 7.639 138.982 0 119.365 0 99.749 0 81.307 7.639 67.437 21.509 53.565 35.38 45.927 53.823 45.928 73.44c0 17.094 5.805 33.294 16.475 46.355L0 182.197l10.607 10.606zM60.928 73.44c-.001-15.611 6.078-30.287 17.116-41.324C89.081 21.078 103.756 15 119.365 15c15.61 0 30.285 6.078 41.322 17.115s17.116 25.712 17.116 41.322c0 15.611-6.078 30.286-17.116 41.324-11.037 11.038-25.712 17.116-41.321 17.116-15.61-.001-30.286-6.079-41.323-17.116C67.006 103.724 60.928 89.05 60.928 73.44z"/></symbol><symbol viewBox="0 0 0 0" id="sprite" xmlns="http://www.w3.org/2000/svg"/><symbol viewBox="0 0 11 11" id="tel" xmlns="http://www.w3.org/2000/svg"><defs><path id="ha" d="M35.052 734.473c-.336.336-.669.507-1.011.52-.622.026-1.094-.47-1.51-.908-.068-.072-.134-.142-.2-.207-.456-.455-.455-1.451.002-2.664.502-1.334 1.495-2.785 2.795-4.085 1.301-1.3 2.752-2.294 4.086-2.796 1.212-.457 2.208-.457 2.663-.002.066.066.137.133.209.201.437.416.933.888.908 1.51-.018.428-.283.844-.814 1.27-1.564 1.257-2.121.69-2.768.034l-.115-.116c-.108-.108-.605-.312-2.492 1.575-.616.617-1.066 1.142-1.339 1.561-.171.264-.43.736-.237.93l.118.118c.656.646 1.222 1.204-.035 2.767a3.603 3.603 0 0 1-.26.292zm.339-7.082c-1.264 1.264-2.227 2.668-2.711 3.954-.393 1.04-.427 1.931-.087 2.27.068.068.136.141.207.216.362.38.771.811 1.226.793.311-.013.648-.24.997-.675 1.048-1.303.677-1.668.064-2.272l-.12-.119c-.289-.288-.225-.757.189-1.394.286-.44.753-.986 1.387-1.62 1.567-1.566 2.525-2.067 3.016-1.576l.117.119c.604.614.97.984 2.272-.063.438-.352.663-.686.676-.998.019-.454-.413-.864-.793-1.225a12.36 12.36 0 0 1-.215-.208c-.34-.34-1.231-.306-2.272.087-1.285.484-2.69 1.447-3.953 2.71z"/></defs><use xlink:href="#ha" transform="translate(-32 -724)"/></symbol><symbol viewBox="0 0 137.333 137.333" id="triangle" xmlns="http://www.w3.org/2000/svg"><path d="M23.468 137.333V0l90.398 68.667-90.398 68.666zm5.967-125.304v113.275l74.574-56.638-74.574-56.637z"/></symbol><symbol viewBox="0 0 13 8" id="vk" xmlns="http://www.w3.org/2000/svg"><defs><path id="ja" d="M79.93 991.226a.996.996 0 0 0-.044-.091c-.225-.439-.656-.977-1.292-1.614l-.014-.015-.007-.007-.006-.007h-.007a8.176 8.176 0 0 1-.548-.6c-.14-.194-.172-.391-.095-.591.054-.151.257-.47.609-.957.185-.258.331-.465.44-.62.78-1.12 1.157-2.067 1.047-2.466l-.043-.093c-.028-.056-.102-.108-.222-.155a.871.871 0 0 0-.458-.023l-2.062.019c-.033-.016-.08-.014-.143.004l-.093.029-.036.023-.028.028a.375.375 0 0 0-.08.098.71.71 0 0 0-.07.164c-.225.754-.31 1.435-.58 1.94-.167.303-.32.564-.46.786-.14.221-.257.385-.352.49-.095.104-.18.188-.257.251-.077.064-.136.09-.176.08a4.7 4.7 0 0 1-.115-.029.475.475 0 0 1-.152-.179.848.848 0 0 1-.078-.285 3.371 3.371 0 0 1-.02-.646c.004-.15.006-.253.006-.307 0-.185.004-.385.01-.602l.017-.515c.005-.126.007-.26.007-.402a1.8 1.8 0 0 0-.024-.332 1.2 1.2 0 0 0-.07-.234.387.387 0 0 0-.14-.175.75.75 0 0 0-.226-.098 4.183 4.183 0 0 0-.914-.095c-.817 0-1.333.196-1.333.883l.04.088c.032.063.064.175.095.336.032.16.052.338.061.533.023.355.023.66 0 .913-.022.253-.044.45-.064.591a1.255 1.255 0 0 1-.173.504.122.122 0 0 1-.034.037.474.474 0 0 1-.182.036c-.064 0-.14-.034-.23-.102a1.68 1.68 0 0 1-.281-.281 3.764 3.764 0 0 1-.329-.5 9.007 9.007 0 0 1-.379-.76l-.108-.212c-.067-.136-.16-.334-.277-.595a10.13 10.13 0 0 1-.368-1.025.59.59 0 0 0-.159-.28l-.033-.027a.58.58 0 0 0-.259-.131l-1.816.017c-.186 0-.311.056-.378.167l-.026.052a.362.362 0 0 0-.02.14c0 .065.013.144.04.237.265.824.565 1.589.883 2.227.319.637.595 1.151.83 1.54.234.39.473.758.717 1.103.244.346.405.567.484.665.079.097.14.17.186.219l.17.175c.107.117.266.257.476.42.21.163.442.324.697.482.255.158.552.287.89.387.339.1.668.14.988.12h.779a.52.52 0 0 0 .358-.16l.027-.037a.51.51 0 0 0 .051-.135.8.8 0 0 0 .024-.2 2.55 2.55 0 0 1 .044-.566c.033-.168.072-.295.115-.38a.927.927 0 0 1 .26-.321.406.406 0 0 1 .054-.026c.109-.039.236-.001.383.113.147.115.284.256.413.424.128.168.283.357.463.566.181.21.339.365.474.467l.135.088c.09.058.208.112.353.16.144.05.27.062.378.037l1.733-.029c.171 0 .305-.03.4-.091.094-.061.15-.128.168-.201a.61.61 0 0 0 .004-.249.98.98 0 0 0-.048-.193z"/></defs><use xlink:href="#ja" transform="translate(-67 -984)"/></symbol></svg>