<?xml version="1.0" encoding="UTF-8" standalone="yes"?>
<!-- Created with sK1/UniConvertor (http://sk1project.org/) -->
<svg xmlns="http://www.w3.org/2000/svg" xmlns:xlink="http://www.w3.org/1999/xlink"
  width="595.276pt" height="841.89pt" viewBox="0 0 595.276 841.89"
  fill-rule="evenodd">
<g>
<g>
<path style="stroke:none; fill:#006fad" d="M 447.701 395.457L 432.492 395.457C 429.94 395.608 429.227 396.241 429.227 399.34L 429.227 407.883L 447.701 407.883L 447.701 395.457zM 455.799 388.616L 455.799 425.868L 447.701 425.868L 447.701 415.16L 429.227 415.16L 429.227 425.868L 421.128 425.868L 421.128 396.664C 421.128 391.504 423.219 388.616 429.227 388.616L 455.799 388.616zM 413.031 396.657L 413.031 416.816C 413.031 423.234 409.425 425.86 404.933 425.86L 379.39 425.86L 379.39 388.609L 404.933 388.609C 411.83 388.609 413.031 392.995 413.031 396.657zM 404.835 398.899C 404.835 396.858 403.592 395.45 401.414 395.45L 387.488 395.45L 387.488 418.726L 401.414 418.725C 404.586 418.564 404.835 416.661 404.835 415.152L 404.835 398.899zM 214.315 388.609L 222.413 388.609L 222.413 403.292L 240.531 403.292L 240.531 388.609L 248.629 388.609L 248.629 425.86L 240.531 425.86L 240.531 410.658L 222.413 410.658L 222.413 425.86L 214.315 425.86L 214.315 388.609zM 262.508 388.609L 272.66 403.838L 282.69 388.609L 292.524 388.609L 276.705 412.425L 276.705 425.86L 268.606 425.86L 268.606 412.423L 252.678 388.609L 262.508 388.609zM 337.981 388.609L 364.076 388.609C 367.795 388.609 371.397 389.131 371.292 396.657L 371.292 425.86L 363.193 425.86L 363.193 399.333C 363.193 396.125 362.809 395.45 360.292 395.45L 346.08 395.45L 346.08 425.86L 337.981 425.86L 337.981 388.609zM 471.996 388.616L 471.996 425.868L 463.897 425.868L 463.897 388.616L 471.996 388.616zM 296.573 425.86L 322.667 425.86C 327.855 425.86 329.988 424.359 329.883 416.879L 329.883 388.609L 321.785 388.609L 321.785 415.202C 321.785 418.391 321.4 418.777 318.883 418.777L 304.671 418.777L 304.671 388.609L 296.573 388.609L 296.573 425.86z"/>
<path style="stroke:none; fill:#006fad" d="M 157.154 412.761C 157.868 416.451 155.934 419.516 154.327 422.491C 152.542 425.259 149.595 427.639 146.054 427.282C 138.108 427.163 130.342 425.943 123.14 423.771C 122.813 423.682 122.486 423.473 122.307 423.176C 122.158 422.759 122.367 422.372 122.664 422.105C 129.241 416.778 137.067 414.308 144.804 411.719C 147.69 410.886 150.756 409.993 153.999 410.41C 155.338 410.588 156.678 411.511 157.154 412.761zM 184.263 396.989C 187.953 400.025 191.286 404.161 190.155 409.16C 188.311 416.54 180.276 420.468 173.878 422.967C 170.396 424.128 166.885 425.318 163.076 425.675C 162.837 425.646 162.451 425.705 162.391 425.348L 162.48 424.931C 167.896 418.831 172.003 411.987 175.604 405.054C 177.27 401.929 178.818 398.715 180.246 395.561C 180.454 395.323 180.663 395.204 180.901 395.115C 182.24 395.234 183.192 396.275 184.263 396.989zM 132.335 389.134L 132.216 389.58C 124.39 398.478 119.242 408.803 114.362 419.069C 113.41 419.962 112.487 418.772 111.624 418.385C 107.279 415.528 103.351 410.916 104.482 405.441C 106.297 398.299 113.647 394.49 119.778 391.901C 123.408 390.532 127.188 389.431 131.175 388.806C 131.592 388.806 132.127 388.747 132.335 389.134zM 171.17 390.562C 171.616 390.8 172.152 390.889 172.419 391.336C 172.658 391.841 172.182 392.169 171.914 392.496C 165.754 397.317 158.701 399.995 151.5 402.346C 147.839 403.238 144.149 404.845 140.073 403.953C 139.12 403.714 138.257 403.09 137.722 402.167C 136.71 399.37 138.079 396.454 139.269 394.014C 140.846 390.949 143.644 387.348 147.512 387.289C 155.844 387.229 163.701 388.479 171.17 390.562zM 181.466 390.8C 187.775 394.252 194.917 400.322 194.173 408.416C 193.31 415.915 186.316 421.152 180.067 424.307C 161.826 433.025 136.204 433.293 117.367 425.675C 110.999 423.027 103.857 418.474 101.179 411.63C 99.1255 406.006 101.625 400.144 105.821 396.246C 114.6 388.271 125.789 385.533 137.305 383.956C 149.804 382.439 162.956 383.777 174.145 387.616C 176.645 388.539 179.115 389.55 181.466 390.8z"/>
</g>
</g>
</svg>